<svg xmlns="http://www.w3.org/2000/svg" xmlns:xlink="http://www.w3.org/1999/xlink" viewBox="0 0 300 48.73"><defs><style>.cls-1{fill:none;}.cls-2{clip-path:url(#clip-path);}.cls-3{fill:#1f1e21;}.cls-4{fill:#f29400;}</style><clipPath id="clip-path"><rect class="cls-1" width="300" height="48.73"/></clipPath></defs><title>Element 2</title><g id="Ebene_2" data-name="Ebene 2"><g id="Ebene_1-2" data-name="Ebene 1"><g class="cls-2"><path class="cls-3" d="M191.4,37c0-2.12,1.11-3,3-3,1.27,0,2.19.3,2.19,1.52s-.53,1.64-2,1.64H191.4Zm3,7.61a14.27,14.27,0,0,0,4.08-.76v-2.4h-.18a11.85,11.85,0,0,1-3.74.69c-1.73,0-3.11-.65-3.11-2.58v-.46H195c2.58,0,4.29-1.2,4.29-3.64,0-2.79-2.12-3.83-4.91-3.83-3.32,0-5.86,1.91-5.86,5.42v2.47c0,3.64,2.44,5.1,5.81,5.1m-11.8-.18h2.86V31.78h-4.87v2.4h2Zm0-14.71h2.86V27.1h-2.86Zm-7.7,10.75a7.13,7.13,0,0,1-3,.78c-1.24,0-1.94-.65-1.94-2.24v-.83c0-2.54,1.36-4,3.76-4h1.64v6Zm-6.48,8.3h3.11c4.13,0,6.69-1.89,6.69-6V31.78h-4.66A6.11,6.11,0,0,0,167,38.14v1.11c0,3,1.68,4.43,4.08,4.43a8.31,8.31,0,0,0,3.69-1.11l.48-.23v.35c0,2.81-1.41,3.64-4.45,3.64h-2.49Zm-9.66-6.62c-2.31,0-3.07-1.55-3.07-4.13s.76-3.92,3.07-3.92,3.07,1.34,3.07,3.92-.76,4.13-3.07,4.13m0,2.47c4,0,5.93-2.17,5.93-6.59,0-4.08-1.87-6.39-5.93-6.39-3.87,0-5.93,2.31-5.93,6.39,0,4.43,1.94,6.59,5.93,6.59m-11.9-.18h2.86V27.1H144.8v2.4h2Zm-9.2-2.28c-2.31,0-3.07-1.55-3.07-4.13s.76-3.92,3.07-3.92,3.07,1.34,3.07,3.92-.76,4.13-3.07,4.13m0,2.47c4,0,5.93-2.17,5.93-6.59,0-4.08-1.87-6.39-5.93-6.39-3.87,0-5.93,2.31-5.93,6.39,0,4.43,1.94,6.59,5.93,6.59m-18.51-.18h2.86V38.81h1.11L127,44.39h3.23v-.19l-4.84-6.76L130.11,32v-.18H127l-3.92,4.66h-1.11V27.1h-2.86Zm-14.87,0h2.86V36.27l.71-.6c.74-.65,1.85-1.61,2.88-1.61s1.64.55,1.64,2.17v8.16h2.86v-8.6c0-2.93-1.34-4.2-3.53-4.2a5.45,5.45,0,0,0-3.83,1.68l-.74.67V31.78h-2.86ZM93.59,42.06c-3.18,0-4.47-2-4.47-5.79V35.14c0-3.78,1.29-5.72,4.47-5.72s4.47,1.94,4.47,5.72v1.13c0,3.81-1.29,5.79-4.47,5.79m0,2.51c5,0,7.52-3.14,7.52-8.3V35.14c0-5.28-2.56-8.23-7.52-8.23S86.07,30,86.07,35.14v1.13c0,5.28,2.56,8.3,7.52,8.3"/><path class="cls-3" d="M282.18,17.73h2V9.46l.71-.74c.71-.71,2-2,3.25-2,1.06,0,2,.55,2,2.54v8.46h2V9.46l.74-.74c.71-.71,2-2,3.23-2,1.08,0,2,.55,2,2.54v8.46h2V9.27c0-3.25-1.43-4.33-3.41-4.33A5,5,0,0,0,293,6.57l-.92.9h-.18a3,3,0,0,0-3.23-2.54,4.87,4.87,0,0,0-3.6,1.64l-.9.9V5.12h-2Zm-22.07,0h2V9.46l.71-.74c.71-.71,2-2,3.25-2,1.06,0,2,.55,2,2.54v8.46h2V9.46l.74-.74c.71-.71,2-2,3.23-2,1.08,0,2,.55,2,2.54v8.46h2V9.27c0-3.25-1.43-4.33-3.41-4.33a5,5,0,0,0-3.6,1.64l-.92.9h-.18a3,3,0,0,0-3.23-2.54A4.87,4.87,0,0,0,263,6.57l-.9.9V5.12h-2Zm-7-3.6c-.72.72-2.17,2-3.44,2-1.06,0-2-.55-2-2.54v-2a4.43,4.43,0,0,1,4.68-4.68h1.43V13.4Zm-3.78,3.78a4.91,4.91,0,0,0,3.6-1.64l.9-.9v2.35h2V5.12h-3.41a6.48,6.48,0,0,0-6.66,6.48v2c0,3.07,1.61,4.33,3.6,4.33m-12-.18h2V9.62l1.43-1.43a3.46,3.46,0,0,1,2.35-.9h.9V5.12h-.81c-1.64,0-2.74,1.06-3.69,2.51l-.18.28V5.12h-2Zm-6.66-3.41a7.8,7.8,0,0,1-3.44.9c-1.43,0-2.33-.83-2.33-2.79V11.6c0-2.88,1.61-4.68,4.31-4.68H231v7.22ZM224,22.07h2.17c4.34,0,6.85-1.64,6.85-5.95v-11h-3.78a6.1,6.1,0,0,0-6.29,6.48v.83c0,3.14,1.8,4.59,3.94,4.59a7.66,7.66,0,0,0,3.74-1l.41-.23v.53c0,2.91-1.43,4-4.87,4H224Zm-9.18-5.95c-2.7,0-3.5-2.08-3.5-4.87s.81-4.52,3.5-4.52,3.51,1.73,3.51,4.52-.81,4.87-3.51,4.87m0,1.8c3.69,0,5.49-2.54,5.49-6.66,0-3.78-1.61-6.32-5.49-6.32-3.69,0-5.49,2.54-5.49,6.32,0,4.13,1.61,6.66,5.49,6.66M201,17.73h2V9.62l1.43-1.43a3.46,3.46,0,0,1,2.35-.9h.9V5.12h-.81c-1.64,0-2.74,1.06-3.69,2.51l-.18.28V5.12h-2Zm-10.91-9c.71-.71,2.17-2,3.41-2,1.08,0,2,.55,2,2.54v2a4.44,4.44,0,0,1-4.68,4.68h-1.43V9.46Zm-2.7,13.35h2V17.73h1.43a6.48,6.48,0,0,0,6.66-6.48v-2c0-3.07-1.61-4.33-3.6-4.33a4.83,4.83,0,0,0-3.6,1.64l-.9.9V5.12h-2ZM173.3,17.73h2V9.46l.71-.74c.72-.71,2-2,3.25-2,1.06,0,2,.55,2,2.54v8.46h2V9.27c0-3.25-1.43-4.33-3.41-4.33a4.87,4.87,0,0,0-3.6,1.64l-.9.9V5.12h-2Zm-11.07-7.38c0-2.54,1.25-3.62,3.41-3.62,1.43,0,2.35.46,2.35,1.82s-.55,2-2.54,2h-3.23Zm3.41,7.56a10,10,0,0,0,3.6-.81v-1.8h-.18a8.84,8.84,0,0,1-3.41.81c-2,0-3.41-.9-3.41-3.25v-.72H166c2.51,0,3.94-1.36,3.94-3.6,0-2.54-1.8-3.62-4.31-3.62a5.1,5.1,0,0,0-5.4,5.42v2.51c0,3.6,2.33,5,5.4,5m-10.91-.18h2V5.12h-4.13v1.8h2.14Zm0-15.13h2V.44h-2ZM140.26,17.73h2V9.46l.71-.74c.71-.71,2-2,3.25-2,1.06,0,2,.55,2,2.54v8.46h2V9.27c0-3.25-1.43-4.33-3.41-4.33a4.87,4.87,0,0,0-3.6,1.64l-.9.9V5.12h-2Zm-6.32,0h2V5.12h-4.13v1.8h2.15Zm0-15.13h2V.44h-2ZM127.3,17.73h2V.44h-4.15v1.8h2.17Zm-2.88,0v-1.8h-1.27c-2,0-2.7-.55-2.7-2.88V6.92H124V5.12h-3.6V2.24h-2V5.12h-2v1.8h2V13.4c0,3.07,1.64,4.33,4.33,4.33Zm-12.8,0h2V5.12h-4.13v1.8h2.14Zm0-15.13h2V.44h-2Zm-11.41,7.75c0-2.54,1.24-3.62,3.41-3.62,1.43,0,2.35.46,2.35,1.82s-.55,2-2.54,2h-3.23Zm3.41,7.56a10,10,0,0,0,3.6-.81v-1.8H107a8.84,8.84,0,0,1-3.41.81c-2,0-3.41-.9-3.41-3.25v-.72H104c2.51,0,3.94-1.36,3.94-3.6,0-2.54-1.8-3.62-4.31-3.62a5.1,5.1,0,0,0-5.4,5.42v2.51c0,3.6,2.33,5,5.4,5m-11.81-.18h4.68V15.84H91.63c-1.43,0-2.33-.81-2.33-2.6V.44H87.13V13.05c0,3.07,1.61,4.68,4.68,4.68"/><path class="cls-4" d="M3,0A2.94,2.94,0,0,0,0,3V5.69a2.94,2.94,0,0,0,3,3H49.89a2.94,2.94,0,0,0,3-3V3a2.94,2.94,0,0,0-3-3Z"/><path class="cls-4" d="M28,18a2.94,2.94,0,0,0-3,3v2.69a2.94,2.94,0,0,0,3,3H73.89a2.94,2.94,0,0,0,3-3V21a2.94,2.94,0,0,0-3-3Z"/><path class="cls-4" d="M16,35.7a2.94,2.94,0,0,0-3,3v2.69a2.94,2.94,0,0,0,3,3H61.9a2.94,2.94,0,0,0,3-3V38.7a2.94,2.94,0,0,0-3-3Z"/></g></g></g></svg>